<svg width="474" height="208" viewBox="0 0 474 208" fill="none" xmlns="http://www.w3.org/2000/svg">
<path d="M471.212 199.808C471.212 199.563 471.148 199.344 471.018 199.149C470.888 198.955 470.643 198.778 470.283 198.62C469.93 198.454 469.412 198.299 468.727 198.155C468.122 198.025 467.564 197.863 467.053 197.669C466.541 197.474 466.102 197.24 465.734 196.967C465.367 196.686 465.079 196.358 464.87 195.983C464.668 195.602 464.568 195.162 464.568 194.665C464.568 194.183 464.672 193.729 464.881 193.304C465.09 192.872 465.392 192.493 465.788 192.169C466.185 191.838 466.667 191.579 467.236 191.391C467.805 191.197 468.446 191.1 469.159 191.1C470.154 191.1 471.007 191.262 471.72 191.586C472.441 191.91 472.992 192.357 473.373 192.926C473.755 193.487 473.946 194.121 473.946 194.827H471.094C471.094 194.517 471.021 194.237 470.877 193.984C470.741 193.732 470.528 193.531 470.24 193.379C469.952 193.221 469.588 193.142 469.149 193.142C468.753 193.142 468.418 193.207 468.144 193.336C467.877 193.466 467.676 193.635 467.539 193.844C467.402 194.053 467.333 194.283 467.333 194.535C467.333 194.723 467.37 194.892 467.442 195.043C467.521 195.187 467.647 195.321 467.82 195.443C467.993 195.566 468.227 195.677 468.522 195.778C468.825 195.879 469.195 195.976 469.635 196.07C470.506 196.243 471.266 196.473 471.915 196.761C472.57 197.042 473.082 197.417 473.449 197.885C473.816 198.353 474 198.951 474 199.679C474 200.197 473.888 200.673 473.665 201.105C473.442 201.53 473.118 201.901 472.693 202.218C472.268 202.535 471.76 202.783 471.169 202.963C470.579 203.136 469.912 203.222 469.17 203.222C468.097 203.222 467.189 203.032 466.448 202.65C465.706 202.261 465.144 201.771 464.762 201.18C464.38 200.583 464.189 199.963 464.189 199.322H466.923C466.945 199.776 467.067 200.14 467.29 200.413C467.514 200.687 467.795 200.885 468.133 201.007C468.479 201.123 468.843 201.18 469.224 201.18C469.656 201.18 470.02 201.123 470.316 201.007C470.611 200.885 470.834 200.723 470.985 200.521C471.137 200.312 471.212 200.075 471.212 199.808Z" fill="black"/>
<path d="M459.338 200.521V195.13C459.338 194.734 459.27 194.391 459.133 194.103C458.996 193.815 458.787 193.592 458.506 193.433C458.225 193.275 457.869 193.196 457.436 193.196C457.055 193.196 456.72 193.261 456.432 193.39C456.151 193.52 455.935 193.704 455.783 193.941C455.632 194.172 455.556 194.438 455.556 194.741H452.693C452.693 194.258 452.808 193.801 453.039 193.369C453.269 192.929 453.597 192.54 454.022 192.202C454.454 191.856 454.969 191.586 455.567 191.391C456.172 191.197 456.849 191.1 457.598 191.1C458.484 191.1 459.273 191.251 459.965 191.553C460.663 191.849 461.211 192.295 461.607 192.893C462.01 193.491 462.212 194.244 462.212 195.151V200.251C462.212 200.835 462.248 201.335 462.32 201.753C462.399 202.164 462.515 202.52 462.666 202.823V203.006H459.759C459.623 202.711 459.518 202.336 459.446 201.883C459.374 201.422 459.338 200.968 459.338 200.521ZM459.738 195.886L459.759 197.582H457.955C457.508 197.582 457.116 197.629 456.777 197.723C456.439 197.809 456.161 197.939 455.945 198.112C455.729 198.278 455.567 198.479 455.459 198.717C455.351 198.947 455.297 199.21 455.297 199.506C455.297 199.794 455.362 200.053 455.492 200.284C455.628 200.514 455.823 200.698 456.075 200.835C456.334 200.964 456.637 201.029 456.983 201.029C457.487 201.029 457.926 200.928 458.301 200.727C458.675 200.518 458.967 200.266 459.176 199.97C459.385 199.675 459.497 199.394 459.511 199.127L460.332 200.359C460.231 200.655 460.08 200.968 459.878 201.299C459.677 201.631 459.417 201.94 459.1 202.228C458.783 202.517 458.402 202.754 457.955 202.942C457.508 203.129 456.99 203.222 456.399 203.222C455.643 203.222 454.966 203.071 454.368 202.769C453.77 202.466 453.298 202.052 452.952 201.526C452.607 201 452.434 200.402 452.434 199.733C452.434 199.113 452.549 198.566 452.78 198.09C453.01 197.615 453.352 197.215 453.806 196.891C454.26 196.56 454.822 196.311 455.492 196.145C456.169 195.973 456.943 195.886 457.815 195.886H459.738Z" fill="black"/>
<path d="M446.156 200.975C446.56 200.975 446.92 200.896 447.237 200.737C447.554 200.579 447.806 200.356 447.993 200.067C448.188 199.779 448.292 199.444 448.306 199.063H450.997C450.982 199.855 450.759 200.565 450.327 201.191C449.895 201.818 449.318 202.315 448.598 202.682C447.885 203.042 447.085 203.222 446.2 203.222C445.299 203.222 444.514 203.071 443.844 202.769C443.174 202.466 442.616 202.045 442.169 201.505C441.73 200.964 441.399 200.338 441.175 199.624C440.959 198.911 440.851 198.148 440.851 197.334V196.988C440.851 196.174 440.959 195.411 441.175 194.698C441.399 193.984 441.73 193.358 442.169 192.818C442.616 192.277 443.174 191.856 443.844 191.553C444.514 191.251 445.296 191.1 446.189 191.1C447.132 191.1 447.961 191.283 448.674 191.651C449.394 192.018 449.956 192.537 450.359 193.207C450.77 193.876 450.982 194.665 450.997 195.573H448.306C448.292 195.155 448.198 194.78 448.025 194.449C447.853 194.118 447.608 193.851 447.291 193.65C446.974 193.448 446.588 193.347 446.135 193.347C445.652 193.347 445.249 193.448 444.925 193.65C444.608 193.851 444.359 194.129 444.179 194.481C444.006 194.827 443.884 195.216 443.812 195.648C443.747 196.073 443.714 196.52 443.714 196.988V197.334C443.714 197.809 443.747 198.263 443.812 198.695C443.884 199.127 444.006 199.516 444.179 199.862C444.359 200.201 444.608 200.471 444.925 200.673C445.249 200.874 445.659 200.975 446.156 200.975Z" fill="black"/>
<path d="M438.636 191.316V203.006H435.773V191.316H438.636ZM435.579 188.258C435.579 187.833 435.723 187.48 436.011 187.199C436.306 186.918 436.702 186.778 437.199 186.778C437.696 186.778 438.089 186.918 438.377 187.199C438.672 187.48 438.82 187.833 438.82 188.258C438.82 188.676 438.672 189.025 438.377 189.306C438.089 189.587 437.696 189.727 437.199 189.727C436.702 189.727 436.306 189.587 436.011 189.306C435.723 189.025 435.579 188.676 435.579 188.258Z" fill="black"/>
<path d="M430.49 193.704V203.006H427.637V191.316H430.338L430.49 193.704ZM434.044 191.24L434.001 193.898C433.843 193.869 433.663 193.848 433.461 193.833C433.266 193.819 433.083 193.812 432.91 193.812C432.47 193.812 432.085 193.873 431.754 193.995C431.422 194.111 431.145 194.28 430.922 194.503C430.706 194.726 430.54 195 430.425 195.324C430.31 195.641 430.245 196.001 430.23 196.405L429.614 196.329C429.614 195.587 429.69 194.899 429.841 194.265C429.993 193.632 430.212 193.077 430.5 192.601C430.789 192.126 431.149 191.759 431.581 191.499C432.02 191.233 432.525 191.1 433.094 191.1C433.252 191.1 433.421 191.114 433.601 191.143C433.789 191.164 433.936 191.197 434.044 191.24Z" fill="black"/>
<path d="M420.981 203.222C420.095 203.222 419.299 203.078 418.593 202.79C417.887 202.502 417.286 202.102 416.789 201.591C416.299 201.072 415.921 200.471 415.654 199.787C415.395 199.095 415.266 198.353 415.266 197.561V197.129C415.266 196.228 415.395 195.411 415.654 194.676C415.914 193.934 416.281 193.297 416.757 192.764C417.232 192.23 417.801 191.82 418.464 191.532C419.126 191.244 419.858 191.1 420.657 191.1C421.485 191.1 422.217 191.24 422.85 191.521C423.484 191.795 424.014 192.184 424.439 192.688C424.864 193.192 425.184 193.797 425.4 194.503C425.616 195.202 425.724 195.976 425.724 196.826V198.025H416.562V196.059H422.915V195.843C422.901 195.389 422.814 194.975 422.656 194.6C422.497 194.219 422.253 193.916 421.921 193.693C421.59 193.462 421.161 193.347 420.635 193.347C420.21 193.347 419.839 193.441 419.523 193.628C419.213 193.808 418.954 194.067 418.745 194.406C418.543 194.737 418.392 195.133 418.291 195.594C418.19 196.055 418.14 196.567 418.14 197.129V197.561C418.14 198.051 418.204 198.504 418.334 198.922C418.471 199.34 418.669 199.704 418.928 200.013C419.195 200.316 419.512 200.554 419.879 200.727C420.254 200.892 420.679 200.975 421.154 200.975C421.752 200.975 422.292 200.86 422.775 200.629C423.265 200.392 423.69 200.042 424.05 199.581L425.487 201.072C425.242 201.432 424.91 201.778 424.493 202.11C424.082 202.441 423.585 202.711 423.002 202.92C422.418 203.122 421.745 203.222 420.981 203.222Z" fill="black"/>
<path d="M399.34 193.714V203.006H396.487V191.316H399.178L399.34 193.714ZM398.918 196.74H398.043C398.043 195.926 398.14 195.177 398.335 194.492C398.537 193.808 398.832 193.214 399.221 192.71C399.61 192.198 400.089 191.802 400.658 191.521C401.234 191.24 401.9 191.1 402.657 191.1C403.183 191.1 403.665 191.179 404.105 191.337C404.544 191.489 404.922 191.73 405.239 192.061C405.563 192.385 405.812 192.81 405.985 193.336C406.158 193.855 406.244 194.478 406.244 195.205V203.006H403.391V195.497C403.391 194.95 403.312 194.521 403.154 194.211C403.003 193.902 402.783 193.686 402.495 193.563C402.207 193.433 401.861 193.369 401.457 193.369C401.011 193.369 400.626 193.459 400.301 193.639C399.984 193.812 399.722 194.053 399.513 194.363C399.311 194.672 399.16 195.029 399.059 195.432C398.965 195.836 398.918 196.271 398.918 196.74ZM406.028 196.21L404.85 196.426C404.857 195.692 404.958 195.004 405.153 194.363C405.347 193.714 405.632 193.149 406.006 192.666C406.388 192.176 406.86 191.795 407.422 191.521C407.991 191.24 408.646 191.1 409.388 191.1C409.964 191.1 410.483 191.182 410.944 191.348C411.412 191.507 411.812 191.762 412.143 192.115C412.475 192.461 412.727 192.911 412.9 193.466C413.08 194.02 413.17 194.698 413.17 195.497V203.006H410.296V195.486C410.296 194.917 410.216 194.481 410.058 194.179C409.907 193.876 409.687 193.668 409.399 193.552C409.111 193.43 408.772 193.369 408.383 193.369C407.987 193.369 407.641 193.444 407.346 193.595C407.058 193.74 406.813 193.941 406.611 194.201C406.417 194.46 406.269 194.762 406.168 195.108C406.075 195.447 406.028 195.814 406.028 196.21Z" fill="black"/>
<path d="M388.47 189.662L383.986 203.006H380.842L386.72 187.275H388.73L388.47 189.662ZM392.22 203.006L387.714 189.662L387.444 187.275H389.464L395.375 203.006H392.22ZM392.014 197.161V199.506H383.576V197.161H392.014Z" fill="black"/>
<path d="M379.275 186.41V203.006H376.412V186.41H379.275Z" fill="black"/>
<path d="M373.528 191.316V203.006H370.664V191.316H373.528ZM370.47 188.258C370.47 187.833 370.614 187.48 370.902 187.199C371.197 186.918 371.594 186.778 372.091 186.778C372.588 186.778 372.98 186.918 373.268 187.199C373.564 187.48 373.711 187.833 373.711 188.258C373.711 188.676 373.564 189.025 373.268 189.306C372.98 189.587 372.588 189.727 372.091 189.727C371.594 189.727 371.197 189.587 370.902 189.306C370.614 189.025 370.47 188.676 370.47 188.258Z" fill="black"/>
<path d="M365.057 200.521V195.13C365.057 194.734 364.988 194.391 364.851 194.103C364.714 193.815 364.505 193.592 364.225 193.433C363.944 193.275 363.587 193.196 363.155 193.196C362.773 193.196 362.438 193.261 362.15 193.39C361.869 193.52 361.653 193.704 361.502 193.941C361.351 194.172 361.275 194.438 361.275 194.741H358.412C358.412 194.258 358.527 193.801 358.757 193.369C358.988 192.929 359.316 192.54 359.741 192.202C360.173 191.856 360.688 191.586 361.286 191.391C361.891 191.197 362.568 191.1 363.317 191.1C364.203 191.1 364.992 191.251 365.683 191.553C366.382 191.849 366.929 192.295 367.326 192.893C367.729 193.491 367.931 194.244 367.931 195.151V200.251C367.931 200.835 367.967 201.335 368.039 201.753C368.118 202.164 368.233 202.52 368.384 202.823V203.006H365.478C365.341 202.711 365.237 202.336 365.165 201.883C365.093 201.422 365.057 200.968 365.057 200.521ZM365.456 195.886L365.478 197.582H363.674C363.227 197.582 362.834 197.629 362.496 197.723C362.157 197.809 361.88 197.939 361.664 198.112C361.448 198.278 361.286 198.479 361.178 198.717C361.07 198.947 361.016 199.21 361.016 199.506C361.016 199.794 361.08 200.053 361.21 200.284C361.347 200.514 361.541 200.698 361.794 200.835C362.053 200.964 362.355 201.029 362.701 201.029C363.205 201.029 363.645 200.928 364.019 200.727C364.394 200.518 364.686 200.266 364.894 199.97C365.103 199.675 365.215 199.394 365.229 199.127L366.051 200.359C365.95 200.655 365.798 200.968 365.597 201.299C365.395 201.631 365.136 201.94 364.819 202.228C364.502 202.517 364.12 202.754 363.674 202.942C363.227 203.129 362.708 203.222 362.118 203.222C361.361 203.222 360.684 203.071 360.086 202.769C359.489 202.466 359.017 202.052 358.671 201.526C358.325 201 358.152 200.402 358.152 199.733C358.152 199.113 358.268 198.566 358.498 198.09C358.729 197.615 359.071 197.215 359.525 196.891C359.978 196.56 360.54 196.311 361.21 196.145C361.887 195.973 362.661 195.886 363.533 195.886H365.456Z" fill="black"/>
<path d="M340.767 187.275H343.339L347.639 199.117L351.929 187.275H354.511L348.666 203.006H346.602L340.767 187.275ZM339.471 187.275H341.988L342.442 198.155V203.006H339.471V187.275ZM353.279 187.275H355.807V203.006H352.836V198.155L353.279 187.275Z" fill="black"/>
<path d="M326.171 201.71L329.304 191.316H332.362L327.672 204.778C327.564 205.066 327.424 205.38 327.251 205.718C327.085 206.057 326.862 206.377 326.581 206.68C326.3 206.99 325.947 207.242 325.522 207.436C325.104 207.631 324.597 207.728 323.999 207.728C323.739 207.728 323.509 207.71 323.307 207.674C323.106 207.638 322.893 207.591 322.67 207.533V205.394C322.742 205.401 322.825 205.405 322.918 205.405C323.019 205.412 323.106 205.416 323.178 205.416C323.595 205.416 323.941 205.365 324.215 205.265C324.489 205.171 324.708 205.016 324.874 204.8C325.047 204.591 325.191 204.317 325.306 203.979L326.171 201.71ZM324.625 191.316L327.273 199.927L327.737 202.941L325.771 203.298L321.546 191.316H324.625Z" fill="black"/>
<path d="M310.417 186.41H313.28V200.424L313 203.006H310.417V186.41ZM320.801 197.042V197.269C320.801 198.141 320.703 198.94 320.509 199.668C320.322 200.395 320.037 201.026 319.655 201.559C319.273 202.084 318.798 202.495 318.229 202.79C317.667 203.078 317.008 203.222 316.252 203.222C315.531 203.222 314.905 203.082 314.372 202.801C313.846 202.52 313.403 202.124 313.043 201.613C312.683 201.094 312.394 200.485 312.178 199.787C311.962 199.081 311.8 198.31 311.692 197.474V196.859C311.8 196.016 311.962 195.245 312.178 194.546C312.394 193.848 312.683 193.239 313.043 192.72C313.403 192.202 313.846 191.802 314.372 191.521C314.898 191.24 315.517 191.1 316.23 191.1C316.994 191.1 317.66 191.247 318.229 191.543C318.805 191.831 319.281 192.241 319.655 192.774C320.037 193.3 320.322 193.927 320.509 194.654C320.703 195.375 320.801 196.171 320.801 197.042ZM317.937 197.269V197.042C317.937 196.545 317.898 196.077 317.818 195.638C317.739 195.191 317.61 194.798 317.429 194.46C317.249 194.121 317.004 193.855 316.695 193.66C316.385 193.466 315.996 193.369 315.528 193.369C315.081 193.369 314.699 193.444 314.383 193.596C314.073 193.747 313.814 193.956 313.605 194.222C313.403 194.489 313.244 194.802 313.129 195.162C313.021 195.522 312.949 195.911 312.913 196.329V198.015C312.964 198.569 313.082 199.07 313.27 199.516C313.457 199.956 313.734 200.305 314.102 200.565C314.476 200.824 314.959 200.953 315.549 200.953C316.01 200.953 316.396 200.863 316.706 200.683C317.015 200.496 317.26 200.237 317.44 199.905C317.62 199.567 317.746 199.174 317.818 198.728C317.898 198.281 317.937 197.795 317.937 197.269Z" fill="black"/>
<path d="M299.461 200.521V186.41H302.335V203.006H299.742L299.461 200.521ZM291.952 197.302V197.075C291.952 196.181 292.053 195.371 292.255 194.644C292.464 193.909 292.766 193.279 293.162 192.753C293.558 192.227 294.037 191.82 294.599 191.532C295.168 191.244 295.813 191.1 296.533 191.1C297.232 191.1 297.841 191.24 298.359 191.521C298.885 191.802 299.332 192.202 299.699 192.72C300.074 193.239 300.373 193.855 300.596 194.568C300.819 195.274 300.981 196.052 301.082 196.902V197.518C300.981 198.346 300.819 199.106 300.596 199.797C300.373 200.489 300.074 201.094 299.699 201.613C299.332 202.124 298.885 202.52 298.359 202.801C297.833 203.082 297.218 203.222 296.512 203.222C295.799 203.222 295.158 203.075 294.588 202.779C294.027 202.484 293.548 202.07 293.151 201.537C292.762 201.004 292.464 200.377 292.255 199.657C292.053 198.937 291.952 198.151 291.952 197.302ZM294.815 197.075V197.302C294.815 197.806 294.859 198.278 294.945 198.717C295.031 199.156 295.172 199.545 295.366 199.884C295.561 200.215 295.809 200.474 296.112 200.662C296.422 200.849 296.796 200.943 297.236 200.943C297.797 200.943 298.258 200.82 298.619 200.575C298.986 200.323 299.271 199.981 299.472 199.549C299.674 199.109 299.804 198.616 299.861 198.069V196.372C299.832 195.94 299.757 195.54 299.634 195.173C299.519 194.806 299.353 194.489 299.137 194.222C298.928 193.956 298.669 193.747 298.359 193.596C298.05 193.444 297.682 193.369 297.257 193.369C296.818 193.369 296.443 193.466 296.134 193.66C295.824 193.848 295.572 194.111 295.377 194.449C295.183 194.788 295.039 195.18 294.945 195.627C294.859 196.073 294.815 196.556 294.815 197.075Z" fill="black"/>
<path d="M285.793 203.222C284.907 203.222 284.112 203.078 283.406 202.79C282.7 202.502 282.098 202.102 281.601 201.591C281.111 201.072 280.733 200.471 280.467 199.787C280.207 199.095 280.078 198.353 280.078 197.561V197.129C280.078 196.228 280.207 195.411 280.467 194.676C280.726 193.934 281.093 193.297 281.569 192.764C282.044 192.23 282.613 191.82 283.276 191.532C283.939 191.244 284.67 191.1 285.469 191.1C286.298 191.1 287.029 191.24 287.663 191.521C288.297 191.795 288.826 192.184 289.251 192.688C289.676 193.192 289.996 193.797 290.213 194.503C290.429 195.202 290.537 195.976 290.537 196.826V198.025H281.374V196.059H287.727V195.843C287.713 195.389 287.627 194.975 287.468 194.6C287.31 194.219 287.065 193.916 286.733 193.693C286.402 193.462 285.974 193.347 285.448 193.347C285.023 193.347 284.652 193.441 284.335 193.628C284.025 193.808 283.766 194.067 283.557 194.406C283.355 194.737 283.204 195.133 283.103 195.594C283.002 196.055 282.952 196.567 282.952 197.129V197.561C282.952 198.051 283.017 198.504 283.146 198.922C283.283 199.34 283.481 199.704 283.741 200.013C284.007 200.316 284.324 200.554 284.691 200.727C285.066 200.892 285.491 200.975 285.966 200.975C286.564 200.975 287.104 200.86 287.587 200.629C288.077 200.392 288.502 200.042 288.862 199.581L290.299 201.072C290.054 201.432 289.723 201.778 289.305 202.11C288.894 202.441 288.397 202.711 287.814 202.92C287.23 203.122 286.557 203.222 285.793 203.222Z" fill="black"/>
<path d="M275.637 193.704V203.006H272.784V191.316H275.486L275.637 193.704ZM279.192 191.24L279.148 193.898C278.99 193.869 278.81 193.848 278.608 193.833C278.414 193.819 278.23 193.812 278.057 193.812C277.618 193.812 277.232 193.873 276.901 193.995C276.57 194.111 276.292 194.28 276.069 194.503C275.853 194.726 275.687 195 275.572 195.324C275.457 195.641 275.392 196.001 275.378 196.405L274.762 196.329C274.762 195.587 274.837 194.899 274.989 194.265C275.14 193.632 275.36 193.077 275.648 192.601C275.936 192.126 276.296 191.759 276.728 191.499C277.168 191.233 277.672 191.1 278.241 191.1C278.399 191.1 278.569 191.114 278.749 191.143C278.936 191.164 279.084 191.197 279.192 191.24Z" fill="black"/>
<path d="M266.129 203.222C265.243 203.222 264.447 203.078 263.741 202.79C263.035 202.502 262.434 202.102 261.937 201.591C261.447 201.072 261.069 200.471 260.802 199.787C260.543 199.095 260.413 198.353 260.413 197.561V197.129C260.413 196.228 260.543 195.411 260.802 194.676C261.061 193.934 261.429 193.297 261.904 192.764C262.38 192.23 262.949 191.82 263.611 191.532C264.274 191.244 265.005 191.1 265.805 191.1C266.633 191.1 267.364 191.24 267.998 191.521C268.632 191.795 269.161 192.184 269.586 192.688C270.011 193.192 270.332 193.797 270.548 194.503C270.764 195.202 270.872 195.976 270.872 196.826V198.025H261.71V196.059H268.063V195.843C268.048 195.389 267.962 194.975 267.803 194.6C267.645 194.219 267.4 193.916 267.069 193.693C266.737 193.462 266.309 193.347 265.783 193.347C265.358 193.347 264.987 193.441 264.67 193.628C264.36 193.808 264.101 194.067 263.892 194.406C263.691 194.737 263.539 195.133 263.438 195.594C263.338 196.055 263.287 196.567 263.287 197.129V197.561C263.287 198.051 263.352 198.504 263.482 198.922C263.618 199.34 263.817 199.704 264.076 200.013C264.342 200.316 264.659 200.554 265.027 200.727C265.401 200.892 265.826 200.975 266.302 200.975C266.899 200.975 267.44 200.86 267.922 200.629C268.412 200.392 268.837 200.042 269.197 199.581L270.634 201.072C270.389 201.432 270.058 201.778 269.64 202.11C269.23 202.441 268.733 202.711 268.149 202.92C267.566 203.122 266.892 203.222 266.129 203.222Z" fill="black"/>
<path d="M247.793 200.197L250.354 191.316H252.169L251.629 194.384L249.047 203.006H247.48L247.793 200.197ZM246.378 191.316L248.301 200.219L248.474 203.006H246.669L243.601 191.316H246.378ZM254.546 200.089L256.426 191.316H259.192L256.145 203.006H254.341L254.546 200.089ZM252.45 191.316L254.989 200.111L255.324 203.006H253.757L251.153 194.384L250.624 191.316H252.45Z" fill="black"/>
<path d="M231.5 197.28V197.053C231.5 196.196 231.623 195.407 231.868 194.687C232.113 193.959 232.469 193.329 232.937 192.796C233.405 192.263 233.978 191.849 234.655 191.553C235.332 191.251 236.103 191.1 236.967 191.1C237.846 191.1 238.624 191.251 239.301 191.553C239.986 191.849 240.562 192.263 241.03 192.796C241.498 193.329 241.855 193.959 242.1 194.687C242.345 195.407 242.467 196.196 242.467 197.053V197.28C242.467 198.13 242.345 198.919 242.1 199.646C241.855 200.366 241.498 200.997 241.03 201.537C240.562 202.07 239.989 202.484 239.312 202.779C238.635 203.075 237.861 203.222 236.989 203.222C236.125 203.222 235.35 203.075 234.666 202.779C233.982 202.484 233.405 202.07 232.937 201.537C232.469 200.997 232.113 200.366 231.868 199.646C231.623 198.919 231.5 198.13 231.5 197.28ZM234.353 197.053V197.28C234.353 197.791 234.403 198.27 234.504 198.717C234.605 199.163 234.76 199.556 234.969 199.895C235.177 200.233 235.448 200.5 235.779 200.694C236.117 200.881 236.521 200.975 236.989 200.975C237.45 200.975 237.846 200.881 238.178 200.694C238.509 200.5 238.779 200.233 238.988 199.895C239.204 199.556 239.362 199.163 239.463 198.717C239.564 198.27 239.615 197.791 239.615 197.28V197.053C239.615 196.549 239.564 196.077 239.463 195.638C239.362 195.191 239.204 194.798 238.988 194.46C238.779 194.114 238.505 193.844 238.167 193.65C237.835 193.448 237.436 193.347 236.967 193.347C236.506 193.347 236.11 193.448 235.779 193.65C235.448 193.844 235.177 194.114 234.969 194.46C234.76 194.798 234.605 195.191 234.504 195.638C234.403 196.077 234.353 196.549 234.353 197.053Z" fill="black"/>
<path d="M222.413 193.563V207.501H219.55V191.316H222.197L222.413 193.563ZM229.922 197.042V197.269C229.922 198.119 229.822 198.908 229.62 199.635C229.425 200.356 229.137 200.986 228.756 201.526C228.374 202.059 227.898 202.477 227.329 202.779C226.767 203.075 226.119 203.222 225.384 203.222C224.664 203.222 224.037 203.086 223.504 202.812C222.971 202.531 222.521 202.135 222.154 201.623C221.786 201.112 221.491 200.518 221.268 199.841C221.052 199.156 220.89 198.411 220.782 197.604V196.88C220.89 196.023 221.052 195.245 221.268 194.546C221.491 193.84 221.786 193.232 222.154 192.72C222.521 192.202 222.968 191.802 223.494 191.521C224.027 191.24 224.65 191.1 225.363 191.1C226.105 191.1 226.757 191.24 227.318 191.521C227.888 191.802 228.367 192.205 228.756 192.731C229.144 193.257 229.436 193.884 229.631 194.611C229.825 195.339 229.922 196.149 229.922 197.042ZM227.059 197.269V197.042C227.059 196.524 227.012 196.045 226.919 195.605C226.825 195.159 226.681 194.77 226.487 194.438C226.292 194.1 226.04 193.837 225.73 193.65C225.42 193.462 225.046 193.369 224.607 193.369C224.167 193.369 223.789 193.441 223.472 193.585C223.155 193.729 222.896 193.934 222.694 194.201C222.492 194.467 222.334 194.784 222.219 195.151C222.111 195.512 222.039 195.911 222.003 196.351V198.144C222.067 198.677 222.193 199.156 222.381 199.581C222.568 200.006 222.842 200.345 223.202 200.597C223.569 200.849 224.045 200.975 224.628 200.975C225.068 200.975 225.442 200.878 225.752 200.683C226.062 200.489 226.314 200.222 226.508 199.884C226.703 199.538 226.843 199.142 226.93 198.695C227.016 198.249 227.059 197.773 227.059 197.269Z" fill="black"/>
<path d="M134.187 113.341L155.594 0H188.248L152.975 159.287H120.004L94.1311 52.7413L68.2585 159.287H35.2871L0 0H32.6406L54.1574 113.12L80.3609 0H108.094L134.187 113.341Z" fill="black"/>
<path d="M473.021 159.287H440.25L376.445 54.4813V159.287H343.674V0H376.445L440.36 105.027V0H473.035V159.287H473.021Z" fill="black"/>
<path d="M264 101H279.5L233.355 0H202L248 101H264Z" fill="#63B330"/>
<path d="M291.208 80L328.208 0L296.5 0L275.708 46L291.208 80Z" fill="black"/>
<rect x="248" y="133" width="32" height="26" fill="black"/>
</svg>
