<svg width="457" height="200" viewBox="0 0 457 200" fill="none" xmlns="http://www.w3.org/2000/svg">
<path d="M453.682 192.375C453.682 192.139 453.62 191.928 453.495 191.74C453.37 191.553 453.134 191.383 452.787 191.231C452.447 191.071 451.948 190.922 451.289 190.783C450.707 190.659 450.169 190.503 449.677 190.315C449.184 190.128 448.761 189.903 448.408 189.639C448.054 189.369 447.777 189.053 447.576 188.693C447.381 188.325 447.284 187.902 447.284 187.423C447.284 186.959 447.385 186.522 447.586 186.113C447.787 185.697 448.078 185.332 448.46 185.02C448.841 184.701 449.306 184.452 449.854 184.271C450.402 184.084 451.019 183.99 451.705 183.99C452.662 183.99 453.484 184.147 454.171 184.459C454.864 184.771 455.395 185.201 455.762 185.749C456.13 186.289 456.314 186.9 456.314 187.579H453.567C453.567 187.281 453.498 187.011 453.359 186.768C453.228 186.525 453.023 186.331 452.746 186.185C452.468 186.033 452.118 185.957 451.695 185.957C451.314 185.957 450.991 186.019 450.728 186.144C450.471 186.269 450.277 186.432 450.145 186.633C450.013 186.834 449.947 187.056 449.947 187.299C449.947 187.479 449.982 187.642 450.051 187.787C450.128 187.926 450.249 188.054 450.415 188.172C450.582 188.29 450.807 188.398 451.092 188.495C451.383 188.592 451.74 188.686 452.163 188.776C453.002 188.942 453.734 189.164 454.358 189.441C454.989 189.712 455.482 190.073 455.835 190.523C456.189 190.974 456.366 191.55 456.366 192.25C456.366 192.75 456.258 193.207 456.043 193.623C455.828 194.033 455.516 194.39 455.107 194.695C454.698 195 454.209 195.239 453.64 195.413C453.072 195.579 452.43 195.662 451.716 195.662C450.682 195.662 449.809 195.479 449.094 195.111C448.38 194.736 447.839 194.265 447.472 193.696C447.104 193.121 446.92 192.524 446.92 191.907H449.552C449.573 192.344 449.691 192.694 449.906 192.958C450.121 193.221 450.391 193.412 450.717 193.53C451.05 193.641 451.4 193.696 451.768 193.696C452.184 193.696 452.534 193.641 452.819 193.53C453.103 193.412 453.318 193.256 453.463 193.062C453.609 192.861 453.682 192.632 453.682 192.375Z" fill="white"/>
<path d="M442.249 193.062V187.871C442.249 187.489 442.183 187.16 442.052 186.882C441.92 186.605 441.719 186.39 441.448 186.237C441.178 186.085 440.835 186.009 440.419 186.009C440.051 186.009 439.728 186.071 439.451 186.196C439.181 186.321 438.973 186.498 438.827 186.726C438.681 186.948 438.608 187.205 438.608 187.496H435.852C435.852 187.032 435.963 186.591 436.185 186.175C436.407 185.752 436.722 185.378 437.131 185.052C437.547 184.719 438.043 184.459 438.619 184.271C439.201 184.084 439.853 183.99 440.575 183.99C441.428 183.99 442.187 184.136 442.853 184.427C443.525 184.712 444.053 185.142 444.434 185.717C444.822 186.293 445.017 187.018 445.017 187.891V192.802C445.017 193.363 445.051 193.845 445.121 194.248C445.197 194.643 445.308 194.986 445.453 195.277V195.454H442.655C442.523 195.17 442.423 194.809 442.353 194.372C442.284 193.929 442.249 193.492 442.249 193.062ZM442.634 188.599L442.655 190.232H440.918C440.488 190.232 440.11 190.277 439.784 190.367C439.458 190.451 439.191 190.575 438.983 190.742C438.775 190.901 438.619 191.096 438.515 191.324C438.411 191.546 438.359 191.799 438.359 192.084C438.359 192.361 438.421 192.611 438.546 192.833C438.678 193.055 438.865 193.232 439.108 193.363C439.357 193.488 439.649 193.551 439.982 193.551C440.467 193.551 440.89 193.453 441.251 193.259C441.611 193.058 441.892 192.815 442.093 192.531C442.294 192.247 442.402 191.976 442.416 191.72L443.206 192.906C443.109 193.19 442.964 193.492 442.77 193.811C442.575 194.13 442.326 194.428 442.021 194.705C441.715 194.983 441.348 195.212 440.918 195.392C440.488 195.572 439.989 195.662 439.42 195.662C438.692 195.662 438.04 195.517 437.464 195.225C436.889 194.934 436.434 194.535 436.101 194.029C435.769 193.523 435.602 192.947 435.602 192.302C435.602 191.706 435.713 191.179 435.935 190.721C436.157 190.263 436.486 189.878 436.923 189.566C437.36 189.247 437.901 189.008 438.546 188.849C439.198 188.682 439.943 188.599 440.783 188.599H442.634Z" fill="white"/>
<path d="M429.558 193.499C429.946 193.499 430.293 193.422 430.598 193.27C430.903 193.117 431.146 192.902 431.326 192.625C431.514 192.347 431.614 192.025 431.628 191.657H434.218C434.204 192.42 433.989 193.103 433.573 193.707C433.157 194.31 432.602 194.788 431.909 195.142C431.222 195.489 430.453 195.662 429.6 195.662C428.733 195.662 427.977 195.517 427.332 195.225C426.687 194.934 426.149 194.528 425.719 194.008C425.296 193.488 424.977 192.885 424.762 192.198C424.554 191.512 424.45 190.777 424.45 189.993V189.66C424.45 188.876 424.554 188.141 424.762 187.455C424.977 186.768 425.296 186.165 425.719 185.645C426.149 185.124 426.687 184.719 427.332 184.427C427.977 184.136 428.729 183.99 429.589 183.99C430.498 183.99 431.295 184.167 431.982 184.521C432.675 184.875 433.216 185.374 433.605 186.019C434 186.664 434.204 187.423 434.218 188.297H431.628C431.614 187.895 431.524 187.534 431.358 187.215C431.191 186.896 430.955 186.64 430.65 186.446C430.345 186.251 429.974 186.154 429.537 186.154C429.072 186.154 428.684 186.251 428.372 186.446C428.067 186.64 427.828 186.907 427.654 187.247C427.488 187.579 427.37 187.954 427.301 188.37C427.238 188.779 427.207 189.209 427.207 189.66V189.993C427.207 190.451 427.238 190.887 427.301 191.304C427.37 191.72 427.488 192.094 427.654 192.427C427.828 192.753 428.067 193.013 428.372 193.207C428.684 193.401 429.079 193.499 429.558 193.499Z" fill="white"/>
<path d="M422.318 184.198V195.454H419.561V184.198H422.318ZM419.374 181.254C419.374 180.845 419.513 180.505 419.79 180.235C420.074 179.964 420.456 179.829 420.934 179.829C421.413 179.829 421.791 179.964 422.068 180.235C422.353 180.505 422.495 180.845 422.495 181.254C422.495 181.656 422.353 181.993 422.068 182.263C421.791 182.534 421.413 182.669 420.934 182.669C420.456 182.669 420.074 182.534 419.79 182.263C419.513 181.993 419.374 181.656 419.374 181.254Z" fill="white"/>
<path d="M414.474 186.498V195.454H411.728V184.199H414.329L414.474 186.498ZM417.897 184.126L417.855 186.685C417.703 186.657 417.529 186.636 417.335 186.622C417.148 186.608 416.971 186.602 416.804 186.602C416.381 186.602 416.01 186.661 415.691 186.778C415.372 186.889 415.105 187.052 414.89 187.267C414.682 187.482 414.523 187.746 414.412 188.058C414.301 188.363 414.238 188.71 414.225 189.098L413.632 189.025C413.632 188.311 413.704 187.649 413.85 187.038C413.996 186.428 414.207 185.894 414.485 185.436C414.762 184.979 415.109 184.625 415.525 184.375C415.948 184.119 416.433 183.99 416.981 183.99C417.134 183.99 417.297 184.004 417.47 184.032C417.651 184.053 417.793 184.084 417.897 184.126Z" fill="white"/>
<path d="M405.32 195.662C404.467 195.662 403.7 195.524 403.021 195.246C402.341 194.969 401.762 194.584 401.283 194.092C400.812 193.592 400.448 193.013 400.191 192.354C399.941 191.688 399.817 190.974 399.817 190.211V189.795C399.817 188.928 399.941 188.141 400.191 187.434C400.441 186.719 400.794 186.106 401.252 185.592C401.71 185.079 402.258 184.684 402.896 184.407C403.534 184.129 404.238 183.99 405.007 183.99C405.805 183.99 406.509 184.126 407.119 184.396C407.73 184.66 408.239 185.034 408.648 185.52C409.058 186.005 409.366 186.588 409.574 187.267C409.782 187.94 409.886 188.686 409.886 189.504V190.659H401.065V188.765H407.182V188.557C407.168 188.12 407.085 187.722 406.932 187.361C406.779 186.993 406.544 186.702 406.225 186.487C405.906 186.265 405.493 186.154 404.987 186.154C404.577 186.154 404.22 186.244 403.915 186.425C403.617 186.598 403.367 186.848 403.166 187.174C402.972 187.493 402.826 187.874 402.729 188.318C402.632 188.762 402.584 189.254 402.584 189.795V190.211C402.584 190.683 402.646 191.12 402.771 191.522C402.903 191.924 403.093 192.275 403.343 192.573C403.6 192.864 403.905 193.093 404.258 193.259C404.619 193.419 405.028 193.499 405.486 193.499C406.062 193.499 406.582 193.388 407.046 193.166C407.518 192.937 407.927 192.6 408.274 192.157L409.657 193.592C409.422 193.939 409.103 194.272 408.7 194.591C408.305 194.91 407.827 195.17 407.265 195.371C406.703 195.565 406.055 195.662 405.32 195.662Z" fill="white"/>
<path d="M384.483 186.508V195.454H381.737V184.199H384.327L384.483 186.508ZM384.078 189.421H383.235C383.235 188.637 383.329 187.916 383.516 187.257C383.71 186.598 383.994 186.026 384.369 185.54C384.743 185.048 385.205 184.667 385.753 184.396C386.307 184.126 386.949 183.99 387.677 183.99C388.183 183.99 388.648 184.067 389.071 184.219C389.494 184.365 389.858 184.597 390.163 184.916C390.475 185.228 390.715 185.638 390.881 186.144C391.048 186.643 391.131 187.243 391.131 187.944V195.454H388.384V188.224C388.384 187.697 388.308 187.285 388.156 186.986C388.01 186.688 387.798 186.48 387.521 186.362C387.244 186.237 386.911 186.175 386.522 186.175C386.092 186.175 385.721 186.262 385.409 186.435C385.104 186.602 384.851 186.834 384.65 187.132C384.456 187.43 384.31 187.774 384.213 188.162C384.123 188.55 384.078 188.97 384.078 189.421ZM390.923 188.911L389.789 189.119C389.796 188.412 389.893 187.749 390.08 187.132C390.267 186.508 390.541 185.964 390.902 185.499C391.269 185.027 391.724 184.66 392.265 184.396C392.812 184.126 393.444 183.99 394.158 183.99C394.713 183.99 395.212 184.07 395.656 184.23C396.107 184.382 396.492 184.629 396.811 184.968C397.13 185.301 397.372 185.735 397.539 186.269C397.712 186.803 397.799 187.455 397.799 188.224V195.454H395.032V188.214C395.032 187.666 394.955 187.247 394.803 186.955C394.657 186.664 394.446 186.463 394.168 186.352C393.891 186.234 393.565 186.175 393.19 186.175C392.809 186.175 392.476 186.248 392.192 186.394C391.914 186.532 391.679 186.726 391.484 186.976C391.297 187.226 391.155 187.517 391.058 187.85C390.968 188.176 390.923 188.53 390.923 188.911Z" fill="white"/>
<path d="M374.018 182.607L369.701 195.454H366.674L372.333 180.308H374.268L374.018 182.607ZM377.628 195.454L373.29 182.607L373.03 180.308H374.975L380.665 195.454H377.628ZM377.43 189.826V192.083H369.306V189.826H377.43Z" fill="white"/>
<path d="M365.165 179.475V195.454H362.408V179.475H365.165Z" fill="white"/>
<path d="M359.631 184.198V195.454H356.874V184.198H359.631ZM356.687 181.254C356.687 180.845 356.826 180.505 357.103 180.235C357.388 179.964 357.769 179.829 358.248 179.829C358.726 179.829 359.104 179.964 359.381 180.235C359.666 180.505 359.808 180.845 359.808 181.254C359.808 181.656 359.666 181.993 359.381 182.263C359.104 182.534 358.726 182.669 358.248 182.669C357.769 182.669 357.388 182.534 357.103 182.263C356.826 181.993 356.687 181.656 356.687 181.254Z" fill="white"/>
<path d="M351.475 193.062V187.871C351.475 187.489 351.41 187.16 351.278 186.882C351.146 186.605 350.945 186.39 350.674 186.237C350.404 186.085 350.061 186.009 349.645 186.009C349.277 186.009 348.955 186.071 348.677 186.196C348.407 186.321 348.199 186.498 348.053 186.726C347.907 186.948 347.835 187.205 347.835 187.496H345.078C345.078 187.032 345.189 186.591 345.411 186.175C345.633 185.752 345.948 185.378 346.357 185.052C346.773 184.719 347.269 184.459 347.845 184.271C348.427 184.084 349.079 183.99 349.801 183.99C350.654 183.99 351.413 184.136 352.079 184.427C352.752 184.712 353.279 185.142 353.66 185.717C354.048 186.293 354.243 187.018 354.243 187.891V192.802C354.243 193.363 354.277 193.845 354.347 194.248C354.423 194.643 354.534 194.986 354.679 195.277V195.454H351.881C351.749 195.17 351.649 194.809 351.579 194.372C351.51 193.929 351.475 193.492 351.475 193.062ZM351.86 188.599L351.881 190.232H350.144C349.714 190.232 349.336 190.277 349.01 190.367C348.684 190.451 348.417 190.575 348.209 190.742C348.001 190.901 347.845 191.096 347.741 191.324C347.637 191.546 347.585 191.799 347.585 192.084C347.585 192.361 347.647 192.611 347.772 192.833C347.904 193.055 348.091 193.232 348.334 193.363C348.583 193.488 348.875 193.551 349.208 193.551C349.693 193.551 350.116 193.453 350.477 193.259C350.837 193.058 351.118 192.815 351.319 192.531C351.521 192.247 351.628 191.976 351.642 191.72L352.432 192.906C352.335 193.19 352.19 193.492 351.996 193.811C351.801 194.13 351.552 194.428 351.247 194.705C350.941 194.983 350.574 195.212 350.144 195.392C349.714 195.572 349.215 195.662 348.646 195.662C347.918 195.662 347.266 195.517 346.69 195.225C346.115 194.934 345.66 194.535 345.327 194.029C344.995 193.523 344.828 192.947 344.828 192.302C344.828 191.706 344.939 191.179 345.161 190.721C345.383 190.263 345.712 189.878 346.149 189.566C346.586 189.247 347.127 189.008 347.772 188.849C348.424 188.682 349.17 188.599 350.009 188.599H351.86Z" fill="white"/>
<path d="M328.09 180.308H330.566L334.706 191.709L338.836 180.308H341.322L335.694 195.454H333.707L328.09 180.308ZM326.842 180.308H329.266L329.702 190.783V195.454H326.842V180.308ZM340.136 180.308H342.571V195.454H339.71V190.783L340.136 180.308Z" fill="white"/>
<path d="M314.036 194.206L317.053 184.198H319.997L315.482 197.16C315.378 197.438 315.243 197.739 315.076 198.065C314.917 198.391 314.702 198.7 314.431 198.991C314.161 199.289 313.821 199.532 313.412 199.719C313.01 199.907 312.521 200 311.945 200C311.695 200 311.474 199.983 311.279 199.948C311.085 199.914 310.881 199.868 310.666 199.813V197.753C310.735 197.76 310.815 197.764 310.905 197.764C311.002 197.771 311.085 197.774 311.155 197.774C311.557 197.774 311.89 197.725 312.153 197.628C312.417 197.538 312.628 197.389 312.788 197.181C312.954 196.98 313.093 196.716 313.204 196.39L314.036 194.206ZM312.549 184.198L315.097 192.489L315.544 195.392L313.651 195.735L309.584 184.198H312.549Z" fill="white"/>
<path d="M298.869 179.475H301.626V192.968L301.355 195.454H298.869V179.475ZM308.866 189.712V189.93C308.866 190.769 308.772 191.539 308.585 192.239C308.405 192.94 308.131 193.547 307.763 194.06C307.396 194.566 306.938 194.962 306.39 195.246C305.849 195.523 305.215 195.662 304.486 195.662C303.793 195.662 303.189 195.527 302.676 195.256C302.17 194.986 301.744 194.604 301.397 194.112C301.05 193.613 300.773 193.027 300.565 192.354C300.356 191.674 300.2 190.932 300.096 190.128V189.535C300.2 188.723 300.356 187.981 300.565 187.309C300.773 186.636 301.05 186.05 301.397 185.551C301.744 185.051 302.17 184.666 302.676 184.396C303.183 184.125 303.779 183.99 304.466 183.99C305.201 183.99 305.842 184.132 306.39 184.417C306.945 184.694 307.403 185.089 307.763 185.603C308.131 186.109 308.405 186.712 308.585 187.413C308.772 188.106 308.866 188.872 308.866 189.712ZM306.109 189.93V189.712C306.109 189.233 306.071 188.782 305.995 188.359C305.918 187.929 305.794 187.551 305.62 187.225C305.447 186.899 305.211 186.643 304.913 186.456C304.615 186.268 304.24 186.175 303.789 186.175C303.359 186.175 302.992 186.248 302.687 186.393C302.388 186.539 302.139 186.74 301.938 186.996C301.744 187.253 301.591 187.555 301.48 187.902C301.376 188.248 301.307 188.623 301.272 189.025V190.648C301.32 191.182 301.435 191.664 301.615 192.094C301.796 192.517 302.063 192.853 302.416 193.103C302.777 193.353 303.242 193.477 303.81 193.477C304.254 193.477 304.625 193.391 304.923 193.217C305.221 193.037 305.457 192.787 305.631 192.468C305.804 192.142 305.925 191.764 305.995 191.334C306.071 190.904 306.109 190.436 306.109 189.93Z" fill="white"/>
<path d="M288.321 193.061V179.475H291.088V195.454H288.591L288.321 193.061ZM281.091 189.961V189.743C281.091 188.883 281.188 188.103 281.382 187.402C281.583 186.695 281.874 186.088 282.256 185.582C282.637 185.075 283.098 184.684 283.639 184.406C284.187 184.129 284.808 183.99 285.501 183.99C286.174 183.99 286.76 184.125 287.26 184.396C287.766 184.666 288.196 185.051 288.549 185.551C288.91 186.05 289.198 186.643 289.413 187.329C289.628 188.009 289.784 188.758 289.881 189.576V190.169C289.784 190.967 289.628 191.699 289.413 192.364C289.198 193.03 288.91 193.613 288.549 194.112C288.196 194.604 287.766 194.986 287.26 195.256C286.753 195.527 286.16 195.662 285.481 195.662C284.794 195.662 284.177 195.52 283.629 195.235C283.088 194.951 282.627 194.552 282.245 194.039C281.871 193.526 281.583 192.923 281.382 192.229C281.188 191.536 281.091 190.78 281.091 189.961ZM283.847 189.743V189.961C283.847 190.447 283.889 190.901 283.972 191.324C284.055 191.747 284.191 192.122 284.378 192.448C284.565 192.767 284.804 193.016 285.096 193.197C285.394 193.377 285.755 193.467 286.178 193.467C286.719 193.467 287.162 193.349 287.509 193.113C287.863 192.871 288.137 192.541 288.331 192.125C288.525 191.702 288.65 191.227 288.705 190.7V189.067C288.678 188.651 288.605 188.266 288.487 187.912C288.376 187.558 288.217 187.253 288.009 186.996C287.807 186.74 287.558 186.539 287.26 186.393C286.961 186.248 286.608 186.175 286.198 186.175C285.775 186.175 285.415 186.268 285.117 186.456C284.818 186.636 284.576 186.889 284.388 187.215C284.201 187.541 284.062 187.919 283.972 188.349C283.889 188.779 283.847 189.243 283.847 189.743Z" fill="white"/>
<path d="M275.161 195.662C274.308 195.662 273.542 195.524 272.862 195.246C272.183 194.969 271.604 194.584 271.125 194.092C270.653 193.592 270.289 193.013 270.033 192.354C269.783 191.688 269.658 190.974 269.658 190.211V189.795C269.658 188.928 269.783 188.141 270.033 187.434C270.282 186.719 270.636 186.106 271.094 185.592C271.551 185.079 272.099 184.684 272.737 184.407C273.375 184.129 274.079 183.99 274.849 183.99C275.647 183.99 276.351 184.126 276.961 184.396C277.571 184.66 278.081 185.034 278.49 185.52C278.899 186.005 279.208 186.588 279.416 187.267C279.624 187.94 279.728 188.686 279.728 189.504V190.659H270.907V188.765H277.023V188.557C277.009 188.12 276.926 187.722 276.774 187.361C276.621 186.993 276.385 186.702 276.066 186.487C275.747 186.265 275.335 186.154 274.828 186.154C274.419 186.154 274.062 186.244 273.757 186.425C273.459 186.598 273.209 186.848 273.008 187.174C272.814 187.493 272.668 187.874 272.571 188.318C272.474 188.762 272.425 189.254 272.425 189.795V190.211C272.425 190.683 272.488 191.12 272.613 191.522C272.744 191.924 272.935 192.275 273.185 192.573C273.441 192.864 273.746 193.093 274.1 193.259C274.461 193.419 274.87 193.499 275.328 193.499C275.903 193.499 276.423 193.388 276.888 193.166C277.36 192.937 277.769 192.6 278.116 192.157L279.499 193.592C279.263 193.939 278.944 194.272 278.542 194.591C278.147 194.91 277.668 195.17 277.107 195.371C276.545 195.565 275.896 195.662 275.161 195.662Z" fill="white"/>
<path d="M265.383 186.498V195.454H262.636V184.199H265.237L265.383 186.498ZM268.805 184.126L268.763 186.685C268.611 186.657 268.437 186.636 268.243 186.622C268.056 186.608 267.879 186.602 267.713 186.602C267.29 186.602 266.919 186.661 266.6 186.778C266.281 186.889 266.014 187.052 265.799 187.267C265.591 187.482 265.431 187.746 265.32 188.058C265.209 188.363 265.147 188.71 265.133 189.098L264.54 189.025C264.54 188.311 264.613 187.649 264.758 187.038C264.904 186.428 265.116 185.894 265.393 185.436C265.67 184.979 266.017 184.625 266.433 184.375C266.856 184.119 267.342 183.99 267.89 183.99C268.042 183.99 268.205 184.004 268.379 184.032C268.559 184.053 268.701 184.084 268.805 184.126Z" fill="white"/>
<path d="M256.228 195.662C255.375 195.662 254.609 195.524 253.929 195.246C253.249 194.969 252.67 194.584 252.192 194.092C251.72 193.592 251.356 193.013 251.099 192.354C250.85 191.688 250.725 190.974 250.725 190.211V189.795C250.725 188.928 250.85 188.141 251.099 187.434C251.349 186.719 251.703 186.106 252.161 185.592C252.618 185.079 253.166 184.684 253.804 184.407C254.442 184.129 255.146 183.99 255.916 183.99C256.713 183.99 257.417 184.126 258.028 184.396C258.638 184.66 259.148 185.034 259.557 185.52C259.966 186.005 260.275 186.588 260.483 187.267C260.691 187.94 260.795 188.686 260.795 189.504V190.659H251.973V188.765H258.09V188.557C258.076 188.12 257.993 187.722 257.84 187.361C257.688 186.993 257.452 186.702 257.133 186.487C256.814 186.265 256.401 186.154 255.895 186.154C255.486 186.154 255.129 186.244 254.824 186.425C254.525 186.598 254.276 186.848 254.075 187.174C253.88 187.493 253.735 187.874 253.638 188.318C253.541 188.762 253.492 189.254 253.492 189.795V190.211C253.492 190.683 253.555 191.12 253.679 191.522C253.811 191.924 254.002 192.275 254.251 192.573C254.508 192.864 254.813 193.093 255.167 193.259C255.528 193.419 255.937 193.499 256.394 193.499C256.97 193.499 257.49 193.388 257.955 193.166C258.426 192.937 258.836 192.6 259.182 192.157L260.566 193.592C260.33 193.939 260.011 194.272 259.609 194.591C259.214 194.91 258.735 195.17 258.173 195.371C257.612 195.565 256.963 195.662 256.228 195.662Z" fill="white"/>
<path d="M238.575 192.75L241.04 184.198H242.788L242.268 187.153L239.781 195.454H238.273L238.575 192.75ZM237.212 184.198L239.064 192.77L239.23 195.454H237.493L234.538 184.198H237.212ZM245.076 192.645L246.886 184.198H249.549L246.616 195.454H244.879L245.076 192.645ZM243.058 184.198L245.503 192.666L245.825 195.454H244.317L241.81 187.153L241.3 184.198H243.058Z" fill="white"/>
<path d="M222.888 189.941V189.722C222.888 188.897 223.006 188.138 223.242 187.444C223.477 186.744 223.821 186.137 224.271 185.624C224.722 185.111 225.274 184.712 225.925 184.427C226.577 184.136 227.319 183.99 228.152 183.99C228.998 183.99 229.747 184.136 230.399 184.427C231.057 184.712 231.612 185.111 232.063 185.624C232.514 186.137 232.857 186.744 233.093 187.444C233.329 188.138 233.447 188.897 233.447 189.722V189.941C233.447 190.759 233.329 191.519 233.093 192.219C232.857 192.913 232.514 193.519 232.063 194.039C231.612 194.553 231.061 194.951 230.409 195.236C229.757 195.52 229.012 195.662 228.172 195.662C227.34 195.662 226.595 195.52 225.936 195.236C225.277 194.951 224.722 194.553 224.271 194.039C223.821 193.519 223.477 192.913 223.242 192.219C223.006 191.519 222.888 190.759 222.888 189.941ZM225.634 189.722V189.941C225.634 190.433 225.683 190.894 225.78 191.324C225.877 191.754 226.026 192.132 226.227 192.458C226.428 192.784 226.688 193.041 227.007 193.228C227.333 193.408 227.722 193.499 228.172 193.499C228.616 193.499 228.998 193.408 229.317 193.228C229.636 193.041 229.896 192.784 230.097 192.458C230.305 192.132 230.458 191.754 230.555 191.324C230.652 190.894 230.7 190.433 230.7 189.941V189.722C230.7 189.237 230.652 188.783 230.555 188.36C230.458 187.93 230.305 187.552 230.097 187.226C229.896 186.893 229.632 186.633 229.306 186.446C228.987 186.251 228.602 186.154 228.152 186.154C227.708 186.154 227.326 186.251 227.007 186.446C226.688 186.633 226.428 186.893 226.227 187.226C226.026 187.552 225.877 187.93 225.78 188.36C225.683 188.783 225.634 189.237 225.634 189.722Z" fill="white"/>
<path d="M214.139 186.362V199.782H211.382V184.199H213.931L214.139 186.362ZM221.369 189.712V189.93C221.369 190.749 221.272 191.508 221.077 192.209C220.89 192.902 220.613 193.509 220.245 194.029C219.878 194.542 219.42 194.945 218.872 195.236C218.331 195.52 217.707 195.662 217 195.662C216.306 195.662 215.703 195.531 215.189 195.267C214.676 194.997 214.243 194.615 213.889 194.123C213.535 193.63 213.251 193.058 213.036 192.406C212.828 191.747 212.672 191.03 212.568 190.253V189.556C212.672 188.731 212.828 187.982 213.036 187.309C213.251 186.629 213.535 186.043 213.889 185.551C214.243 185.052 214.673 184.667 215.179 184.396C215.692 184.126 216.292 183.99 216.979 183.99C217.693 183.99 218.321 184.126 218.862 184.396C219.41 184.667 219.871 185.055 220.245 185.561C220.62 186.068 220.901 186.671 221.088 187.371C221.275 188.072 221.369 188.852 221.369 189.712ZM218.612 189.93V189.712C218.612 189.213 218.567 188.751 218.477 188.328C218.387 187.898 218.248 187.524 218.061 187.205C217.873 186.879 217.631 186.626 217.332 186.446C217.034 186.265 216.674 186.175 216.251 186.175C215.828 186.175 215.463 186.244 215.158 186.383C214.853 186.522 214.603 186.719 214.409 186.976C214.215 187.233 214.063 187.538 213.952 187.891C213.848 188.238 213.778 188.623 213.743 189.046V190.773C213.806 191.286 213.927 191.747 214.108 192.157C214.288 192.566 214.551 192.892 214.898 193.134C215.252 193.377 215.71 193.499 216.271 193.499C216.694 193.499 217.055 193.405 217.353 193.218C217.651 193.03 217.894 192.774 218.081 192.448C218.269 192.115 218.404 191.734 218.487 191.304C218.57 190.874 218.612 190.416 218.612 189.93Z" fill="white"/>
<path d="M129.195 109.124L149.806 0H181.245L147.284 153.361H115.539L90.6292 50.7791L65.7191 153.361H33.9743L0 0H31.4263L52.1426 108.911L77.3712 0H104.073L129.195 109.124Z" fill="white"/>
<path d="M455.423 153.361H423.871L362.441 52.4545V153.361H330.889V0H362.441L423.977 101.12V0H455.436V153.361H455.423Z" fill="white"/>
<path d="M254.178 97.2425H269.102L224.674 0H194.485L238.774 97.2425H254.178Z" fill="#63B330"/>
<path d="M280.374 77.0238L315.998 0L285.469 0L265.451 44.2887L280.374 77.0238Z" fill="white"/>
<rect x="238.774" y="128.052" width="30.8095" height="25.0327" fill="white"/>
</svg>
