<svg width="609" height="906" viewBox="0 0 609 906" fill="none" xmlns="http://www.w3.org/2000/svg">
<g clip-path="url(#clip0_58_4059)">
<rect width="608.522" height="905.486" transform="matrix(-1 0 0 1 608.522 0)" fill="black"/>
<path d="M516.903 124.513H493.999L562.188 -25.2188H608.522L540.547 124.513H516.903Z" fill="#5CBB00"/>
<path d="M476.191 94.567L421.798 -25.2188L468.411 -25.2188L498.978 43.6581L476.191 94.567Z" fill="white"/>
<path d="M516.903 442.893H493.999L562.188 293.161H608.522L540.547 442.893H516.903Z" fill="#5CBB00"/>
<path d="M476.191 412.947L421.798 293.161L468.411 293.161L498.978 362.038L476.191 412.947Z" fill="white"/>
<path d="M516.903 780.184H493.999L562.188 630.452H608.522L540.547 780.184H516.903Z" fill="#5CBB00"/>
<path d="M476.191 750.238L421.798 630.452L468.411 630.452L498.978 699.329L476.191 750.238Z" fill="white"/>
<path d="M305.414 124.513H282.509L350.699 -25.2188H397.033L329.058 124.513H305.414Z" fill="#5CBB00"/>
<path d="M264.702 94.567L210.309 -25.2188L256.922 -25.2188L287.488 43.6581L264.702 94.567Z" fill="white"/>
<path d="M305.414 442.893H282.509L350.699 293.161H397.033L329.058 442.893H305.414Z" fill="#5CBB00"/>
<path d="M264.702 412.947L210.309 293.161L256.922 293.161L287.488 362.038L264.702 412.947Z" fill="white"/>
<path d="M305.414 780.184H282.509L350.699 630.452H397.033L329.058 780.184H305.414Z" fill="#5CBB00"/>
<path d="M264.702 750.238L210.309 630.452L256.922 630.452L287.488 699.329L264.702 750.238Z" fill="white"/>
<path d="M93.9249 124.513H71.0202L139.209 -25.2188H185.544L117.569 124.513H93.9249Z" fill="#5CBB00"/>
<path d="M53.2128 94.567L-1.18002 -25.2188L45.4329 -25.2188L75.999 43.6581L53.2128 94.567Z" fill="white"/>
<path d="M93.9249 442.893H71.0202L139.209 293.161H185.544L117.569 442.893H93.9249Z" fill="#5CBB00"/>
<path d="M53.2128 412.947L-1.18002 293.161L45.4329 293.161L75.999 362.038L53.2128 412.947Z" fill="white"/>
<path d="M93.9249 780.184H71.0202L139.209 630.452H185.544L117.569 780.184H93.9249Z" fill="#5CBB00"/>
<path d="M53.2143 750.238L-1.17855 630.452L45.4344 630.452L76.0005 699.329L53.2143 750.238Z" fill="white"/>
<path d="M623.827 105.601H600.922L669.111 255.333H715.446L647.47 105.601H623.827Z" fill="#5CBB00"/>
<path d="M583.115 135.547L528.722 255.333L575.335 255.333L605.901 186.456L583.115 135.547Z" fill="white"/>
<path d="M623.827 442.896H600.922L669.111 592.628H715.446L647.47 442.896H623.827Z" fill="#5CBB00"/>
<path d="M583.115 472.842L528.722 592.628L575.335 592.628L605.901 523.751L583.115 472.842Z" fill="white"/>
<path d="M623.827 780.185H600.922L669.111 929.917H715.446L647.47 780.185H623.827Z" fill="#5CBB00"/>
<path d="M583.115 810.131L528.722 929.917L575.335 929.917L605.901 861.04L583.115 810.131Z" fill="white"/>
<path d="M412.338 105.601H389.433L457.622 255.333H503.957L435.981 105.601H412.338Z" fill="#5CBB00"/>
<path d="M371.627 135.547L317.235 255.333L363.847 255.333L394.414 186.456L371.627 135.547Z" fill="white"/>
<path d="M412.338 442.896H389.433L457.622 592.628H503.957L435.981 442.896H412.338Z" fill="#5CBB00"/>
<path d="M371.627 472.842L317.235 592.628L363.847 592.628L394.414 523.751L371.627 472.842Z" fill="white"/>
<path d="M412.338 780.185H389.433L457.622 929.917H503.957L435.981 780.185H412.338Z" fill="#5CBB00"/>
<path d="M371.627 810.131L317.235 929.917L363.847 929.917L394.414 861.04L371.627 810.131Z" fill="white"/>
<path d="M200.849 105.601H177.944L246.133 255.333H292.468L224.492 105.601H200.849Z" fill="#5CBB00"/>
<path d="M160.137 135.547L105.744 255.333L152.357 255.333L182.923 186.456L160.137 135.547Z" fill="white"/>
<path d="M200.849 442.896H177.944L246.133 592.628H292.468L224.492 442.896H200.849Z" fill="#5CBB00"/>
<path d="M160.137 472.842L105.744 592.628L152.357 592.628L182.923 523.751L160.137 472.842Z" fill="white"/>
<path d="M200.849 780.185H177.944L246.133 929.917H292.468L224.492 780.185H200.849Z" fill="#5CBB00"/>
<path d="M160.137 810.131L105.744 929.917L152.357 929.917L182.923 861.04L160.137 810.131Z" fill="white"/>
<path d="M1.93909 105.601H-20.9657L47.2236 255.333H93.5581L25.5827 105.601H1.93909Z" fill="#5CBB00"/>
<path d="M1.93909 442.896H-20.9657L47.2236 592.628H93.5581L25.5827 442.896H1.93909Z" fill="#5CBB00"/>
<path d="M1.93909 780.185H-20.9657L47.2236 929.917H93.5581L25.5827 780.185H1.93909Z" fill="#5CBB00"/>
</g>
<defs>
<clipPath id="clip0_58_4059">
<rect width="608.522" height="905.486" fill="white" transform="matrix(-1 0 0 1 608.522 0)"/>
</clipPath>
</defs>
</svg>
