<svg width="609" height="904" viewBox="0 0 609 904" fill="none" xmlns="http://www.w3.org/2000/svg">
<g clip-path="url(#clip0_58_3994)">
<rect width="608.514" height="903.337" transform="matrix(-1 0 0 1 608.514 0)" fill="#EAEAEA"/>
<path d="M516.896 124.218H493.992L562.18 -25.1592H608.514L540.54 124.218H516.896Z" fill="white"/>
<path d="M476.185 94.3427L421.793 -25.1588L468.405 -25.1588L498.971 43.5545L476.185 94.3427Z" fill="white"/>
<path d="M516.896 441.838H493.992L562.18 292.461H608.514L540.54 441.838H516.896Z" fill="white"/>
<path d="M476.185 411.963L421.793 292.461L468.405 292.461L498.971 361.175L476.185 411.963Z" fill="white"/>
<path d="M516.896 778.331H493.992L562.18 628.955H608.514L540.54 778.331H516.896Z" fill="white"/>
<path d="M476.185 748.456L421.793 628.955L468.405 628.955L498.971 697.668L476.185 748.456Z" fill="white"/>
<path d="M305.411 124.218H282.506L350.695 -25.1592H397.028L329.054 124.218H305.411Z" fill="white"/>
<path d="M264.699 94.3427L210.307 -25.1588L256.919 -25.1588L287.485 43.5545L264.699 94.3427Z" fill="white"/>
<path d="M305.411 441.838H282.506L350.695 292.461H397.028L329.054 441.838H305.411Z" fill="white"/>
<path d="M264.699 411.963L210.307 292.461L256.919 292.461L287.485 361.175L264.699 411.963Z" fill="white"/>
<path d="M305.411 778.331H282.506L350.695 628.955H397.028L329.054 778.331H305.411Z" fill="white"/>
<path d="M264.699 748.456L210.307 628.955L256.919 628.955L287.485 697.668L264.699 748.456Z" fill="white"/>
<path d="M93.9242 124.218H71.0198L139.208 -25.1592H185.542L117.568 124.218H93.9242Z" fill="white"/>
<path d="M53.2127 94.3427L-1.17942 -25.1588L45.4329 -25.1588L75.9986 43.5545L53.2127 94.3427Z" fill="white"/>
<path d="M93.9242 441.838H71.0198L139.208 292.461H185.542L117.568 441.838H93.9242Z" fill="white"/>
<path d="M53.2127 411.963L-1.17942 292.461L45.4329 292.461L75.9986 361.175L53.2127 411.963Z" fill="white"/>
<path d="M93.9242 778.331H71.0198L139.208 628.955H185.542L117.568 778.331H93.9242Z" fill="white"/>
<path d="M53.2127 748.456L-1.17942 628.955L45.4329 628.955L75.9986 697.668L53.2127 748.456Z" fill="white"/>
<path d="M623.818 105.35H600.914L669.102 254.727H715.436L647.462 105.35H623.818Z" fill="white"/>
<path d="M583.107 135.225L528.715 254.727L575.327 254.727L605.893 186.013L583.107 135.225Z" fill="white"/>
<path d="M623.818 441.841H600.914L669.102 591.218H715.436L647.462 441.841H623.818Z" fill="white"/>
<path d="M583.107 471.715L528.715 591.217L575.327 591.217L605.893 522.503L583.107 471.715Z" fill="white"/>
<path d="M623.818 778.33H600.914L669.102 927.707H715.436L647.462 778.33H623.818Z" fill="white"/>
<path d="M583.107 808.206L528.715 927.708L575.327 927.708L605.893 858.994L583.107 808.206Z" fill="white"/>
<path d="M412.332 105.35H389.428L457.616 254.727H503.95L435.976 105.35H412.332Z" fill="white"/>
<path d="M371.621 135.225L317.229 254.727L363.841 254.727L394.407 186.013L371.621 135.225Z" fill="white"/>
<path d="M412.332 441.841H389.428L457.616 591.218H503.95L435.976 441.841H412.332Z" fill="white"/>
<path d="M371.621 471.715L317.229 591.217L363.841 591.217L394.407 522.503L371.621 471.715Z" fill="white"/>
<path d="M412.332 778.33H389.428L457.616 927.707H503.95L435.976 778.33H412.332Z" fill="white"/>
<path d="M371.621 808.206L317.229 927.708L363.841 927.708L394.407 858.994L371.621 808.206Z" fill="white"/>
<path d="M200.846 105.35H177.942L246.13 254.727H292.464L224.489 105.35H200.846Z" fill="white"/>
<path d="M160.135 135.225L105.743 254.727L152.355 254.727L182.921 186.013L160.135 135.225Z" fill="white"/>
<path d="M200.846 441.841H177.942L246.13 591.218H292.464L224.489 441.841H200.846Z" fill="white"/>
<path d="M160.135 471.715L105.743 591.217L152.355 591.217L182.921 522.503L160.135 471.715Z" fill="white"/>
<path d="M200.846 778.33H177.942L246.13 927.707H292.464L224.489 778.33H200.846Z" fill="white"/>
<path d="M160.135 808.206L105.743 927.708L152.355 927.708L182.921 858.994L160.135 808.206Z" fill="white"/>
<path d="M1.93986 105.35H-20.9646L47.2238 254.727H93.5577L25.5832 105.35H1.93986Z" fill="white"/>
<path d="M1.93986 441.841H-20.9646L47.2238 591.218H93.5577L25.5832 441.841H1.93986Z" fill="white"/>
<path d="M1.93986 778.33H-20.9646L47.2238 927.707H93.5577L25.5832 778.33H1.93986Z" fill="white"/>
</g>
<defs>
<clipPath id="clip0_58_3994">
<rect width="608.514" height="903.337" fill="white" transform="matrix(-1 0 0 1 608.514 0)"/>
</clipPath>
</defs>
</svg>
