<svg width="609" height="904" viewBox="0 0 609 904" fill="none" xmlns="http://www.w3.org/2000/svg">
<g clip-path="url(#clip0_58_3864)">
<rect width="608.514" height="903.337" transform="matrix(-1 0 0 1 608.515 0)" fill="#0398A3"/>
<path d="M516.897 124.218H493.992L562.181 -25.1592H608.515L540.54 124.218H516.897Z" fill="#007B84"/>
<path d="M476.185 94.3427L421.793 -25.1588L468.405 -25.1588L498.971 43.5545L476.185 94.3427Z" fill="#007B84"/>
<path d="M516.897 441.838H493.992L562.181 292.461H608.515L540.54 441.838H516.897Z" fill="#007B84"/>
<path d="M476.185 411.963L421.793 292.461L468.405 292.461L498.971 361.175L476.185 411.963Z" fill="#007B84"/>
<path d="M516.897 778.331H493.992L562.181 628.955H608.515L540.54 778.331H516.897Z" fill="#007B84"/>
<path d="M476.185 748.456L421.793 628.955L468.405 628.955L498.971 697.668L476.185 748.456Z" fill="#007B84"/>
<path d="M305.411 124.218H282.506L350.694 -25.1592H397.028L329.054 124.218H305.411Z" fill="#007B84"/>
<path d="M264.699 94.3427L210.307 -25.1588L256.92 -25.1588L287.485 43.5545L264.699 94.3427Z" fill="#007B84"/>
<path d="M305.411 441.838H282.506L350.694 292.461H397.028L329.054 441.838H305.411Z" fill="#007B84"/>
<path d="M264.699 411.963L210.307 292.461L256.92 292.461L287.485 361.175L264.699 411.963Z" fill="#007B84"/>
<path d="M305.411 778.331H282.506L350.694 628.955H397.028L329.054 778.331H305.411Z" fill="#007B84"/>
<path d="M264.699 748.456L210.307 628.955L256.92 628.955L287.485 697.668L264.699 748.456Z" fill="#007B84"/>
<path d="M93.9242 124.218H71.0197L139.208 -25.1592H185.542L117.567 124.218H93.9242Z" fill="#007B84"/>
<path d="M53.2131 94.3427L-1.17899 -25.1588L45.4333 -25.1588L75.999 43.5545L53.2131 94.3427Z" fill="#007B84"/>
<path d="M93.9242 441.838H71.0197L139.208 292.461H185.542L117.567 441.838H93.9242Z" fill="#007B84"/>
<path d="M53.2131 411.963L-1.17899 292.461L45.4333 292.461L75.999 361.175L53.2131 411.963Z" fill="#007B84"/>
<path d="M93.9242 778.331H71.0197L139.208 628.955H185.542L117.567 778.331H93.9242Z" fill="#007B84"/>
<path d="M53.2131 748.456L-1.17899 628.955L45.4333 628.955L75.999 697.668L53.2131 748.456Z" fill="#007B84"/>
<path d="M623.819 105.35H600.914L669.103 254.727H715.437L647.462 105.35H623.819Z" fill="#007B84"/>
<path d="M583.108 135.225L528.716 254.727L575.328 254.727L605.894 186.013L583.108 135.225Z" fill="#007B84"/>
<path d="M623.819 441.841H600.914L669.103 591.218H715.437L647.462 441.841H623.819Z" fill="#007B84"/>
<path d="M583.108 471.715L528.716 591.217L575.328 591.217L605.894 522.503L583.108 471.715Z" fill="#007B84"/>
<path d="M623.819 778.33H600.914L669.103 927.707H715.437L647.462 778.33H623.819Z" fill="#007B84"/>
<path d="M583.108 808.206L528.716 927.708L575.328 927.708L605.894 858.994L583.108 808.206Z" fill="#007B84"/>
<path d="M412.332 105.35H389.428L457.616 254.727H503.95L435.976 105.35H412.332Z" fill="#007B84"/>
<path d="M371.621 135.225L317.229 254.727L363.842 254.727L394.407 186.013L371.621 135.225Z" fill="#007B84"/>
<path d="M412.332 441.841H389.428L457.616 591.218H503.95L435.976 441.841H412.332Z" fill="#007B84"/>
<path d="M371.621 471.715L317.229 591.217L363.842 591.217L394.407 522.503L371.621 471.715Z" fill="#007B84"/>
<path d="M412.332 778.33H389.428L457.616 927.707H503.95L435.976 778.33H412.332Z" fill="#007B84"/>
<path d="M371.621 808.206L317.229 927.708L363.842 927.708L394.407 858.994L371.621 808.206Z" fill="#007B84"/>
<path d="M200.846 105.35H177.942L246.13 254.727H292.464L224.489 105.35H200.846Z" fill="#007B84"/>
<path d="M160.135 135.225L105.743 254.727L152.355 254.727L182.921 186.013L160.135 135.225Z" fill="#007B84"/>
<path d="M200.846 441.841H177.942L246.13 591.218H292.464L224.489 441.841H200.846Z" fill="#007B84"/>
<path d="M160.135 471.715L105.743 591.217L152.355 591.217L182.921 522.503L160.135 471.715Z" fill="#007B84"/>
<path d="M200.846 778.33H177.942L246.13 927.707H292.464L224.489 778.33H200.846Z" fill="#007B84"/>
<path d="M160.135 808.206L105.743 927.708L152.355 927.708L182.921 858.994L160.135 808.206Z" fill="#007B84"/>
<path d="M1.9398 105.35H-20.9646L47.2238 254.727H93.5576L25.5831 105.35H1.9398Z" fill="#007B84"/>
<path d="M1.9398 441.841H-20.9646L47.2238 591.218H93.5576L25.5831 441.841H1.9398Z" fill="#007B84"/>
<path d="M1.9398 778.33H-20.9646L47.2238 927.707H93.5576L25.5831 778.33H1.9398Z" fill="#007B84"/>
</g>
<defs>
<clipPath id="clip0_58_3864">
<rect width="608.514" height="903.337" fill="white" transform="matrix(-1 0 0 1 608.515 0)"/>
</clipPath>
</defs>
</svg>
